# xmcd
#
# Track frame offsets:
#	150
#	15118
#	44384
#	55540
#	76716
#	134428
#	156439
#	179652
#	191333
#	206804
#	225955
#	240825
#	254162
#
# Disc length: 3813 seconds
#
# Revision: 0
# Processed by: cddbd v1.5.2PL0 Copyright (c) Steve Scherf et al.
# Submitted via: audiograbber 1.83.01
#
DISCID=9e0ee30d
DTITLE=Das Ausbildungsmusikkorps der Bundeswehr - Walter Ratzek - Eine Dokument
DTITLE=ation - 500 Jahre Militärgeschichte
DYEAR=1900
DGENRE=military
TTITLE0=Marsch Herzog von Braunschweig
TTITLE1=Der alte Dessauer
TTITLE2=Steinmetz Marsch
TTITLE3=Marsch aus den Sinf. Metarmorphosen - Paul Hindemith
TTITLE4=Overtüre zur Oper Semiramis - Rossini
TTITLE5=Lied ohne Worte - Rolf Rudin
TTITLE6=Concertino for Euphonium and Band - James Curnow
TTITLE7=His honor - Henry Fillmore
TTITLE8=Cesarini, Franco - Mexican Picture - El Butaquito
TTITLE9=Cesarini, Franco - Mexican Picture - Romance Mejicano
TTITLE10=Cesarini, Franco - Mexican Picture - Bailaviejo
TTITLE11=Cesarini, Franco - Mexican Picture - La Charreada
TTITLE12=Impressionen - Chuck Mangione
EXTD=
EXTT0=
EXTT1=
EXTT2=
EXTT3=
EXTT4=
EXTT5=
EXTT6=
EXTT7=
EXTT8=
EXTT9=
EXTT10=
EXTT11=
EXTT12=
PLAYORDER=
